<svg width="21" height="21" viewBox="0 0 21 21" fill="none" xmlns="http://www.w3.org/2000/svg">
<circle cx="10.395" cy="10.0464" r="10" fill="#E8FF5B"/>
<path d="M6.39551 15.2347H8.27888V9.99459C8.27888 9.7861 8.33448 9.48726 8.70281 9.48726C9.01555 9.48726 9.16844 9.7861 9.23099 9.8973L12.1221 15.2347H14.2973L11.434 10.071C11.3854 9.98069 11.3506 9.8834 11.3506 9.8C11.3506 9.62626 11.4827 9.48726 11.7607 9.48726H12.1499C13.4425 9.48726 14.3807 8.5421 14.3807 7.26336C14.3807 5.98461 13.4425 5.0464 12.1499 5.0464H6.39551V15.2347ZM8.27888 7.26336C8.27888 6.88112 8.54992 6.63788 9.00165 6.63788H11.7815C12.2333 6.63788 12.5043 6.88112 12.5043 7.26336C12.5043 7.64559 12.2333 7.88883 11.7815 7.88883H9.00165C8.54992 7.88883 8.27888 7.64559 8.27888 7.26336Z" fill="#0B0C20"/>
</svg>
