<svg width="70" height="70" viewBox="0 0 70 70" fill="none" xmlns="http://www.w3.org/2000/svg">
<path opacity="0.2" d="M69 35C69 39.4649 68.1206 43.8862 66.4119 48.0112C64.7032 52.1363 62.1988 55.8844 59.0416 59.0416C55.8844 62.1988 52.1363 64.7032 48.0112 66.4119C43.8862 68.1206 39.4649 69 35 69C30.5351 69 26.1138 68.1206 21.9888 66.4119C17.8637 64.7032 14.1156 62.1988 10.9584 59.0416C7.80118 55.8844 5.29675 52.1363 3.58809 48.0112C1.87944 43.8862 1 39.4649 1 35C1 30.5351 1.87944 26.1138 3.5881 21.9888C5.29676 17.8637 7.80118 14.1156 10.9584 10.9584C14.1156 7.80118 17.8637 5.29675 21.9888 3.58809C26.1138 1.87943 30.5351 0.999999 35 1C39.4649 1 43.8862 1.87944 48.0112 3.5881C52.1363 5.29676 55.8844 7.80118 59.0416 10.9584C62.1988 14.1156 64.7032 17.8637 66.4119 21.9888C68.1206 26.1138 69 30.5351 69 35L69 35Z" stroke="white" stroke-width="2"/>
</svg>
